<?xml version="1.0" standalone="no"?>
<!DOCTYPE svg PUBLIC "-//W3C//DTD SVG 1.1//EN" "http://www.w3.org/Graphics/SVG/1.1/DTD/svg11.dtd" >
<svg>
<metadata>
Created by FontForge 20090622 at Tue Apr 19 03:37:14 2016
 By deploy user
From the WSI&#226;&#128;&#144;Font Collection.  Copyright (c)1993 W.S.I.  All Rights Reserved.  Redistribution Strictly Prohibited.
</metadata>
<defs>
<font id="SharnayItalic" horiz-adv-x="617" >
  <font-face 
    font-family="Sharnay"
    font-weight="400"
    font-style="italic"
    font-stretch="normal"
    units-per-em="1000"
    panose-1="0 0 4 0 0 0 0 0 0 0"
    ascent="800"
    descent="-200"
    x-height="488"
    cap-height="698"
    bbox="-89 -210 1162 899"
    underline-thickness="50"
    underline-position="-75"
    slope="-11"
    unicode-range="U+0020-U+F002"
  />
<missing-glyph horiz-adv-x="500" 
d="M63 0v800h375v-800h-375zM125 63h250v675h-250v-675z" />
    <glyph glyph-name=".notdef" horiz-adv-x="500" 
d="M63 0v800h375v-800h-375zM125 63h250v675h-250v-675z" />
    <glyph glyph-name=".null" horiz-adv-x="0" 
 />
    <glyph glyph-name="nonmarkingreturn" horiz-adv-x="282" 
 />
    <glyph glyph-name="space" unicode=" " horiz-adv-x="282" 
 />
    <glyph glyph-name="exclam" unicode="!" horiz-adv-x="254" 
d="M338 698l-131 -516h-79l87 516h123zM124 -9q-24 0 -39.5 15.5t-15.5 39.5q0 32 26 57.5t58 25.5q25 0 41.5 -15t16.5 -40q0 -33 -27 -58t-60 -25z" />
    <glyph glyph-name="quotedbl" unicode="&#x22;" horiz-adv-x="302" 
d="M404 698l-66 -223h-74l67 223h73zM288 698l-68 -223h-73l66 223h75z" />
    <glyph glyph-name="numbersign" unicode="#" horiz-adv-x="568" 
d="M624 481l-19 -49h-112l-71 -166h112l-21 -49h-112l-86 -203h-48l86 203h-101l-87 -203h-47l85 203h-111l21 49h112l70 166h-112l20 49h113l85 203h49l-87 -203h102l86 203h47l-85 -203h111zM444 432h-101l-70 -166h102z" />
    <glyph glyph-name="dollar" unicode="$" horiz-adv-x="517" 
d="M585 661l-50 -85q-63 41 -119 41l-45 -213q166 -34 166 -144q0 -17 -4 -36q-27 -128 -142 -193q-48 -27 -110 -39l-17 -83h-56l16 79q-103 0 -190 88l73 87q58 -79 142 -79l49 232q-158 30 -158 147q0 18 4 38q18 82 92 143q71 58 145 58l16 73l53 -1l-15 -70
q87 0 150 -43zM361 607q-25 -12 -43 -25q-45 -33 -53 -70q-2 -11 -2 -20q0 -54 59 -70zM410 204q3 12 3 23q0 57 -65 73l-44 -207q26 8 46 22q48 33 60 89z" />
    <glyph glyph-name="percent" unicode="%" horiz-adv-x="757" 
d="M492 527q-16 -73 -78.5 -123.5t-133.5 -50.5q-64 0 -104 39.5t-40 99.5q0 18 4 36q15 72 78 123.5t136 51.5q62 0 102 -38.5t40 -99.5q0 -18 -4 -38zM809 698l-647 -698h-66l649 698h64zM767 172q-16 -77 -78 -127.5t-136 -50.5q-63 0 -102 39t-39 98q0 18 4 37
q15 72 76.5 122.5t133.5 50.5q63 0 105 -41q39 -39 39 -97q0 -15 -3 -31zM421 552q0 38 -22 64.5t-59 26.5q-49 0 -89 -46t-40 -96q0 -38 21.5 -62.5t58.5 -24.5q52 0 91 43t39 95zM697 193q0 39 -24 64.5t-59 25.5q-50 0 -90 -45.5t-40 -96.5q0 -37 22 -62.5t59 -25.5
q51 0 91.5 44t40.5 96z" />
    <glyph glyph-name="ampersand" unicode="&#x26;" horiz-adv-x="680" 
d="M696 201q-55 -56 -109 -93q44 -64 91 -108h-147l-41 49q-112 -61 -224 -61q-95 0 -150 52q-51 48 -51 118q0 19 4 37q28 134 199 187q-48 57 -48 124q0 89 81 148q74 53 167 53q78 0 122 -43q39 -39 39 -100q0 -18 -4 -36q-25 -119 -210 -179q59 -97 120 -175
q67 48 109 100zM529 543q2 9 2 18q0 31 -21 51.5t-56 20.5q-47 0 -85 -29q-41 -31 -41 -77q0 -48 45 -113q40 11 70 28q73 40 86 101zM443 116l-136 200q-128 -127 -128 -133q0 -43 30 -74q34 -35 94 -35q72 0 140 42z" />
    <glyph glyph-name="quotesingle" unicode="'" horiz-adv-x="185" 
d="M288 698l-68 -223h-73l66 223h75z" />
    <glyph glyph-name="parenleft" unicode="(" horiz-adv-x="286" 
d="M434 715q-181 -151 -225 -359q-13 -60 -13 -117q0 -149 82 -256l-70 -63q-106 124 -106 308q0 62 13 124q24 115 97.5 229.5t177.5 196.5z" />
    <glyph glyph-name="parenright" unicode=")" horiz-adv-x="286" 
d="M42 -80l-41 63q107 88 172 212q68 131 68 263q0 150 -84 257l67 63q110 -123 110 -308q0 -156 -83 -308q-79 -143 -209 -242z" />
    <glyph glyph-name="asterisk" unicode="*" horiz-adv-x="344" 
d="M453 598q-9 -42 -61 -42q-9 0 -19 1.5t-14 1.5q-30 0 -35 -22q-4 -19 24 -19q10 0 22.5 1.5t15.5 1.5q43 0 43 -32q0 -21 -17 -37.5t-38 -16.5q-27 0 -39.5 37t-25.5 37q-17 0 -21 -19q-2 -10 9 -38t8 -42q-9 -39 -54 -39q-20 0 -31 11.5t-7 28.5q2 11 24.5 38t25.5 41
q4 19 -11 19q-14 0 -41.5 -37t-56.5 -37q-36 0 -36 35q0 24 19 37.5t44 13.5q6 0 17.5 -1.5t15.5 -1.5q30 0 34 19q4 22 -23 22q-6 0 -20 -2t-18 -2q-18 0 -32 11t-10 33q3 16 20 29.5t33 13.5q29 0 41 -36.5t25 -36.5q16 0 20 18q3 14 -7.5 39t-7.5 40q8 40 53 40
q20 0 31 -11.5t7 -28.5q-4 -18 -26 -41.5t-25 -37.5q-4 -18 13 -18q15 0 42 37t56 37q16 0 26.5 -14t6.5 -31z" />
    <glyph glyph-name="plus" unicode="+" 
d="M608 399l-19 -90h-167l-36 -169h-93l36 169h-170l19 90h171l36 169h91l-36 -169h168z" />
    <glyph glyph-name="comma" unicode="," horiz-adv-x="187" 
d="M30 -141l-39 25q61 54 92 109q-47 0 -47 48q0 32 27 59t59 27q24 0 40.5 -16t16.5 -43q0 -48 -54 -116q-42 -52 -95 -93z" />
    <glyph glyph-name="hyphen" unicode="-" horiz-adv-x="292" 
d="M340 326l-19 -89h-250l19 89h250z" />
    <glyph glyph-name="hyphen" unicode="&#x2010;" horiz-adv-x="292" 
d="M340 326l-19 -89h-250l19 89h250z" />
    <glyph glyph-name="period" unicode="." horiz-adv-x="181" 
d="M87 -9q-24 0 -39.5 15.5t-15.5 39.5q0 32 26 57.5t58 25.5q25 0 41 -15.5t16 -39.5q0 -33 -26.5 -58t-59.5 -25z" />
    <glyph glyph-name="slash" unicode="/" horiz-adv-x="298" 
d="M420 698l-323 -706l-71 8l322 705z" />
    <glyph glyph-name="zero" unicode="0" 
d="M659 352q-37 -173 -141 -273q-96 -93 -213 -93q-92 0 -150 65q-60 69 -60 187q0 52 12 111q34 159 141 265q102 100 214 100q94 0 151 -71t57 -187q0 -50 -11 -104zM547 354q11 50 11 93q0 81 -35 127q-33 42 -83 42q-66 0 -126 -65q-67 -73 -94 -202q-11 -54 -11 -100
q0 -78 30 -122.5t82 -44.5q72 0 134 71q65 75 92 201z" />
    <glyph glyph-name="one" unicode="1" horiz-adv-x="618" 
d="M532 698l-148 -698h-113l127 599h-72l52 99h154z" />
    <glyph glyph-name="two" unicode="2" 
d="M645 512q-19 -90 -119 -195q-61 -63 -249 -220h286l-49 -97h-479q286 227 402 354q83 91 97 156q3 16 3 31q0 76 -85 75q-50 0 -87.5 -34.5t-50.5 -93.5h-110q19 92 95 156t171 64q87 0 133.5 -41t46.5 -109q0 -22 -5 -46z" />
    <glyph glyph-name="three" unicode="3" horiz-adv-x="618" 
d="M632 541q-26 -121 -156 -155q123 -18 123 -133q0 -23 -6 -49q-20 -96 -100 -157t-181 -61q-94 0 -151 47.5t-57 128.5q0 29 8 61h109q-5 -22 -5 -42q0 -53 34 -82q29 -25 76 -25q58 0 101 38.5t56 99.5q3 17 3 31q0 96 -156 96l17 80q69 0 117 30q56 36 56 101
q0 35 -23 57t-63 22q-90 0 -132 -104h-105q16 79 90 133.5t170 54.5q87 0 135 -43q43 -38 43 -97q0 -16 -3 -32z" />
    <glyph glyph-name="four" unicode="4" horiz-adv-x="618" 
d="M624 698l-93 -440h66l-18 -86h-66l-37 -172h-112l37 172h-322l18 89l394 437h133zM491 593l-285 -334h214z" />
    <glyph glyph-name="five" unicode="5" horiz-adv-x="618" 
d="M660 698l-48 -97h-243l-64 -192q45 12 91 12q93 0 144 -44t51 -117q0 -23 -5 -48q-21 -99 -109 -162.5t-201 -63.5q-116 0 -205 66l51 92q81 -66 163 -66q74 0 127 39q50 37 63 98q3 13 3 26q0 49 -40.5 78.5t-112.5 29.5q-50 0 -146 -25l124 374h357z" />
    <glyph glyph-name="six" unicode="6" 
d="M648 698q-101 -83 -287 -250q46 12 77 12q83 0 131.5 -49.5t48.5 -125.5q0 -25 -5 -50q-23 -105 -111 -175t-201 -70q-98 0 -157 58q-56 55 -56 139q0 25 5 50q21 101 155 230l259 231h141zM504 234q3 16 3 31q0 52 -35 85.5t-86 33.5q-73 0 -130.5 -55.5t-57.5 -127.5
q0 -50 35 -83.5t90 -33.5q62 0 115 43.5t66 106.5z" />
    <glyph glyph-name="seven" unicode="7" horiz-adv-x="618" 
d="M724 698l-531 -698h-129l466 600h-347l52 98h489z" />
    <glyph glyph-name="eight" unicode="8" 
d="M498 380q48 -10 75 -47t27 -88q0 -19 -4 -40q-21 -97 -105 -157t-189 -60q-94 0 -149 53q-50 49 -50 122q0 75 52 138t126 79q-77 22 -77 109q0 90 83 157q78 63 171 63q83 0 131 -45q46 -41 46 -106q0 -60 -39.5 -112t-97.5 -66zM524 519q3 12 3 24q0 37 -25 59t-61 22
q-50 0 -90.5 -39t-40.5 -89q0 -36 24 -59.5t63 -23.5q42 0 79.5 29.5t47.5 76.5zM488 240q0 43 -29 72.5t-78 29.5q-56 0 -102.5 -38.5t-58.5 -94.5q-3 -14 -3 -28q0 -46 29 -75t74 -29q67 0 117.5 48.5t50.5 114.5z" />
    <glyph glyph-name="nine" unicode="9" 
d="M262 0h-145l288 250q-42 -15 -80 -15q-82 0 -131 49t-49 127q0 25 6 51q21 101 110 171.5t201 70.5q100 0 160 -57q54 -52 54 -130q0 -84 -79 -191q-59 -79 -172 -182zM562 462q3 15 3 30q0 51 -34.5 84t-87.5 33q-72 0 -129.5 -54.5t-57.5 -125.5q0 -52 36 -85.5
t92 -33.5q60 0 112 44.5t66 107.5z" />
    <glyph glyph-name="colon" unicode=":" horiz-adv-x="209" 
d="M181 359q-25 0 -41 16t-16 39q0 33 27 58t60 25q24 0 39 -15.5t15 -38.5q0 -31 -26 -57.5t-58 -26.5zM102 -9q-24 0 -39.5 15.5t-15.5 39.5q0 32 26 57.5t58 25.5q57 0 57 -54q0 -33 -26.5 -58.5t-59.5 -25.5z" />
    <glyph glyph-name="semicolon" unicode=";" horiz-adv-x="220" 
d="M192 360q-25 0 -40.5 15.5t-15.5 39.5q0 33 26 57.5t59 24.5q24 0 38.5 -15t14.5 -38q0 -32 -25 -58t-57 -26zM50 -140l-39 26q55 49 92 109q-46 0 -46 49q0 33 26.5 59t59.5 26q23 0 39.5 -16.5t16.5 -43.5q0 -47 -55 -115q-41 -52 -94 -94z" />
    <glyph glyph-name="less" unicode="&#x3c;" horiz-adv-x="500" 
d="M577 578l-18 -84l-300 -145l238 -146l-18 -84l-359 230z" />
    <glyph glyph-name="equal" unicode="=" 
d="M620 455l-17 -79h-430l17 79h430zM595 332l-17 -79h-432l17 79h432z" />
    <glyph glyph-name="greater" unicode="&#x3e;" horiz-adv-x="500" 
d="M528 349l-457 -230l18 84l300 146l-238 145l18 84z" />
    <glyph glyph-name="question" unicode="?" horiz-adv-x="380" 
d="M469 540q-13 -61 -66 -119l-94 -91q-51 -49 -59 -87q-5 -22 -6 -63h-82q1 30 7 81q10 47 97.5 138t96.5 132q2 12 2 23q0 33 -20 54t-56 21q-70 0 -146 -62l-12 84q96 58 189 58q72 0 114 -38q39 -36 39 -94q0 -18 -4 -37zM160 -9q-24 0 -39.5 16t-15.5 39q0 32 26 57.5
t58 25.5q25 0 41 -16.5t16 -40.5q0 -32 -26.5 -56.5t-59.5 -24.5z" />
    <glyph glyph-name="at" unicode="@" horiz-adv-x="755" 
d="M793 417q-24 -115 -94.5 -196t-145.5 -81q-66 0 -66 66q0 9 1 17q-45 -74 -115 -74q-42 0 -68 28t-26 82q0 26 6 56q23 106 97 184q69 73 131 73q29 0 51.5 -16.5t27.5 -44.5l19 55h48l-113 -294q-11 -30 -11 -51q0 -38 32 -38q39 0 90 56q63 67 84 169q7 35 7 67
q0 88 -53.5 139.5t-146.5 51.5q-122 0 -226.5 -92t-133.5 -227q-9 -41 -9 -79q0 -108 63 -173t161 -65q72 0 152.5 37.5t137.5 99.5l13 -35q-149 -146 -314 -146q-122 0 -197.5 75.5t-75.5 197.5q0 41 9 84q33 159 161 266q123 104 267 104q111 0 177.5 -63t66.5 -165
q0 -33 -7 -68zM557 445q3 15 3 28q0 56 -50 56q-53 0 -104 -72q-49 -68 -68 -162q-5 -26 -5 -46q0 -62 49 -62q55 0 110 91q46 78 65 167z" />
    <glyph glyph-name="A" unicode="A" horiz-adv-x="592" 
d="M599 0h-125l-22 209h-224l-109 -209h-126l391 698h121zM450 293l-26 303l-156 -303h182z" />
    <glyph glyph-name="B" unicode="B" horiz-adv-x="561" 
d="M597 522q-13 -62 -57 -106q-40 -40 -92 -53q54 -8 88.5 -43t34.5 -86q0 -16 -4 -33q-19 -89 -84 -144q-69 -57 -170 -57h-246l148 698h221q78 0 123 -39q42 -37 42 -98q0 -19 -4 -39zM491 510q3 14 3 27q0 78 -94 78h-86l-47 -219h80q58 0 95.5 30.5t48.5 83.5zM455 208
q3 14 3 27q0 84 -117 84h-90l-50 -234h91q136 0 163 123z" />
    <glyph glyph-name="C" unicode="C" horiz-adv-x="644" 
d="M756 635l-67 -90q-61 61 -156 61q-102 0 -192 -76.5t-113 -182.5q-6 -26 -6 -52q0 -87 56.5 -146t147.5 -59q88 0 182 54l24 -87q-105 -70 -233 -70q-135 0 -217 84q-78 81 -78 204q0 37 8 75q32 152 171 259q131 101 270 101q119 0 203 -75z" />
    <glyph glyph-name="D" unicode="D" horiz-adv-x="629" 
d="M664 349q-31 -148 -154.5 -248.5t-267.5 -100.5h-175l148 698h170q132 0 211 -78q76 -75 76 -194q0 -38 -8 -77zM551 406q0 86 -54.5 141.5t-145.5 55.5h-40l-107 -504h42q121 0 213 93t92 214z" />
    <glyph glyph-name="E" unicode="E" horiz-adv-x="501" 
d="M620 698l-44 -92h-264l-44 -207h247l-20 -91h-247l-45 -216h291l-46 -92h-381l148 698h405z" />
    <glyph glyph-name="F" unicode="F" horiz-adv-x="455" 
d="M612 698l-44 -92h-256l-45 -209h238l-41 -90h-216l-65 -307h-116l148 698h397z" />
    <glyph glyph-name="G" unicode="G" horiz-adv-x="805" 
d="M855 391l-10 -49q-27 -133 -146 -238q-131 -116 -295 -116q-133 0 -216.5 78t-83.5 201q0 175 141 309t317 134q170 0 249 -134l-102 -59q-60 96 -171 96q-101 0 -191 -77q-93 -78 -117 -189q-6 -29 -6 -57q0 -91 58.5 -147.5t145.5 -56.5q95 0 174 61.5t117 161.5h-250
l17 82h369z" />
    <glyph glyph-name="H" unicode="H" horiz-adv-x="666" 
d="M747 698l-148 -698h-115l65 307h-301l-65 -307h-116l148 698h116l-61 -291h301l61 291h115z" />
    <glyph glyph-name="I" unicode="I" horiz-adv-x="250" 
d="M331 698l-148 -698h-116l148 698h116z" />
    <glyph glyph-name="J" unicode="J" horiz-adv-x="384" 
d="M465 698l-119 -562q-14 -66 -63 -107q-52 -42 -127 -42q-89 0 -159 67l69 80q41 -49 91 -49q26 0 48 18t26 38l118 557h116z" />
    <glyph glyph-name="K" unicode="K" horiz-adv-x="526" 
d="M667 698l-311 -324l193 -374h-141l-154 336l-71 -336h-116l148 698h116l-62 -293l261 293h137z" />
    <glyph glyph-name="L" unicode="L" horiz-adv-x="464" 
d="M493 93l-46 -93h-380l148 698h116l-128 -605h290z" />
    <glyph glyph-name="M" unicode="M" horiz-adv-x="858" 
d="M888 698l-57 -698h-112l53 518l-287 -518h-107l-68 518l-165 -518h-114l239 698h114l75 -565l315 565h114z" />
    <glyph glyph-name="N" unicode="N" horiz-adv-x="745" 
d="M826 698l-148 -698h-128l-253 552l-117 -552h-113l148 698h131l250 -554l116 554h114z" />
    <glyph glyph-name="O" unicode="O" horiz-adv-x="811" 
d="M845 350q-31 -148 -154 -253q-128 -109 -284 -109q-132 0 -217 79.5t-85 205.5q0 37 8 76q32 151 159.5 255t282.5 104q133 0 215.5 -80t82.5 -203q0 -37 -8 -75zM730 348q6 29 6 57q0 89 -58 146.5t-145 57.5q-100 0 -192 -77.5t-114 -182.5q-6 -28 -6 -56
q0 -87 56 -145t147 -58q109 0 199 80q85 76 107 178z" />
    <glyph glyph-name="P" unicode="P" horiz-adv-x="533" 
d="M630 493q-20 -95 -87 -152t-158 -57h-142l-60 -284h-116l148 698h231q91 0 140.5 -41t49.5 -114q0 -24 -6 -50zM516 487q4 19 4 34q0 85 -109 85h-99l-50 -234h102q128 0 152 115z" />
    <glyph glyph-name="Q" unicode="Q" horiz-adv-x="811" 
d="M847 354q-33 -156 -173 -272l69 -80l-84 -67l-81 93q-88 -39 -175 -39q-131 0 -214.5 79t-83.5 204q0 38 8 77q32 151 159.5 255t282.5 104q136 0 218 -80.5t82 -202.5q0 -35 -8 -71zM730 351q6 28 6 55q0 89 -59 146t-144 57q-102 0 -193 -77t-113 -183q-6 -28 -6 -56
q0 -88 57 -145.5t150 -57.5q106 0 194 79q85 76 108 182z" />
    <glyph glyph-name="R" unicode="R" horiz-adv-x="538" 
d="M604 524q-18 -86 -73 -138q-64 -62 -170 -62l178 -324h-139l-150 316l-67 -316h-116l148 698h212q86 0 133.5 -36.5t47.5 -99.5q0 -18 -4 -38zM494 506q3 12 3 23q0 36 -28 58t-78 22h-79l-47 -223h80q56 0 96.5 33t52.5 87z" />
    <glyph glyph-name="S" unicode="S" horiz-adv-x="517" 
d="M585 661l-50 -85q-69 44 -131 44q-53 0 -98 -37q-47 -40 -47 -92q0 -48 72 -73l133 -45q72 -36 72 -109q0 -20 -5 -43q-21 -100 -105.5 -165t-188.5 -65q-134 0 -203 85l73 87q59 -79 145 -79q60 0 109.5 41.5t49.5 100.5q0 49 -70 77l-131 48q-70 37 -70 107q0 18 4 39
q18 85 92 146q80 66 185 66q90 0 164 -48z" />
    <glyph glyph-name="T" unicode="T" horiz-adv-x="418" 
d="M583 698l-50 -99h-145l-127 -599h-114l127 599h-153l21 99h441z" />
    <glyph glyph-name="U" unicode="U" horiz-adv-x="660" 
d="M741 698l-100 -470q-24 -113 -108.5 -175.5t-203.5 -62.5q-104 0 -161 45q-60 47 -60 132q0 29 7 61l100 470h116l-98 -465q-4 -21 -4 -39q0 -105 117 -105q152 0 182 144l98 465h115z" />
    <glyph glyph-name="V" unicode="V" horiz-adv-x="529" 
d="M678 698l-359 -698h-109l-63 698h118l28 -562l268 562h117z" />
    <glyph glyph-name="W" unicode="W" horiz-adv-x="851" 
d="M986 698l-320 -698h-110l-17 542l-245 -542h-109l-24 698h112l-2 -538l247 538h111l18 -539l226 539h113z" />
    <glyph glyph-name="X" unicode="X" horiz-adv-x="553" 
d="M706 698l-285 -334l152 -364h-134l-104 274l-220 -274h-134l306 364l-144 334h130l99 -252l204 252h130z" />
    <glyph glyph-name="Y" unicode="Y" horiz-adv-x="524" 
d="M700 698l-317 -391l-65 -307h-114l65 307l-149 391h134l94 -287l221 287h131z" />
    <glyph glyph-name="Z" unicode="Z" horiz-adv-x="563" 
d="M707 698l-504 -603h371l-50 -95h-524l501 603h-334l48 95h492z" />
    <glyph glyph-name="bracketleft" unicode="[" horiz-adv-x="272" 
d="M420 770l-15 -71h-78l-149 -700h78l-16 -72h-182l180 843h182z" />
    <glyph glyph-name="backslash" unicode="\" horiz-adv-x="288" 
d="M267 698l-24 -698h-75l26 698h73z" />
    <glyph glyph-name="bracketright" unicode="]" horiz-adv-x="272" 
d="M362 770l-180 -843h-182l16 72h78l149 700h-78l15 71h182z" />
    <glyph glyph-name="asciicircum" unicode="^" horiz-adv-x="552" 
d="M542 165h-85l-89 268l-203 -268h-84l317 408z" />
    <glyph glyph-name="underscore" unicode="_" horiz-adv-x="401" 
d="M380 -100l-11 -50h-402l11 50h402z" />
    <glyph glyph-name="grave" unicode="`" horiz-adv-x="140" 
d="M304 567l-58 -35l-134 119l75 46z" />
    <glyph glyph-name="a" unicode="a" horiz-adv-x="587" 
d="M624 488l-104 -488h-102l12 58q-61 -72 -167 -72q-90 0 -137 54q-44 49 -44 132q0 34 8 71q23 109 104.5 181t178.5 72q100 0 137 -65l12 57h102zM465 238q9 43 9 76q0 102 -87 102q-67 0 -115 -43q-52 -45 -70 -130q-6 -27 -6 -51q0 -118 115 -118q119 0 154 164z" />
    <glyph glyph-name="b" unicode="b" horiz-adv-x="585" 
d="M599 254q-25 -118 -100 -190q-79 -76 -190 -76q-99 0 -129 66l-11 -54h-102l142 667l115 47l-58 -274q73 60 157 60q78 0 128 -47q55 -50 55 -136q0 -30 -7 -63zM487 241q6 29 6 55q0 59 -31 91t-83 32q-49 0 -87 -28q-45 -34 -58 -98l-14 -68q-5 -26 -5 -49
q0 -101 90 -101q66 0 115.5 44t66.5 122z" />
    <glyph glyph-name="c" unicode="c" horiz-adv-x="476" 
d="M550 461l-50 -82q-45 36 -102 36q-63 0 -123 -49.5t-75 -120.5q-4 -18 -4 -35q0 -58 39 -96t94 -38q62 0 112 29l17 -76q-77 -44 -164 -44q-91 0 -150 54.5t-59 144.5q0 29 6 59q23 106 115 183t194 77q97 0 150 -42z" />
    <glyph glyph-name="d" unicode="d" horiz-adv-x="586" 
d="M671 714l-152 -714h-102l12 58q-27 -31 -74 -51t-97 -20q-74 0 -123 49q-52 53 -52 142q0 33 8 69q24 111 103.5 181.5t176.5 70.5q93 0 136 -60l49 228zM468 251q8 39 8 68q0 99 -100 99q-57 0 -105 -43q-53 -47 -70 -129q-5 -25 -5 -48q0 -58 32 -90.5t84 -32.5
q119 0 156 176z" />
    <glyph glyph-name="e" unicode="e" horiz-adv-x="564" 
d="M614 328l-407 -188q43 -73 115 -73q84 0 157 82l63 -45q-102 -120 -248 -120q-94 0 -152 57.5t-58 145.5q0 27 6 55q23 109 114.5 184t200.5 75q117 0 175 -86q24 -37 34 -87zM502 356q-25 66 -111 66q-65 0 -125 -50t-74 -115q-4 -20 -3 -46z" />
    <glyph glyph-name="f" unicode="f" horiz-adv-x="268" 
d="M447 695l-41 -84q-24 13 -44 13q-50 0 -67 -83l-11 -53h99l-40 -86h-77l-85 -402h-105l85 402h-67l39 86h47l14 66q15 73 60.5 115.5t108.5 42.5q44 0 84 -17z" />
    <glyph glyph-name="g" unicode="g" horiz-adv-x="583" 
d="M620 488l-103 -481q-43 -200 -282 -200q-122 0 -198 65l61 76q56 -60 161 -60q63 0 105 33q40 30 51 80l13 61q-62 -69 -165 -69q-83 0 -132 51t-49 134q0 30 7 62q25 118 109 190q79 69 178 69q85 0 132 -60l11 49h101zM464 244q11 51 11 85q0 54 -28 74q-21 15 -68 15
q-59 0 -106 -42q-55 -49 -74 -139q-5 -24 -5 -46q0 -55 32 -86t84 -31q61 0 95 35q39 39 59 135z" />
    <glyph glyph-name="h" unicode="h" horiz-adv-x="585" 
d="M590 338l-72 -338h-105l66 311q3 13 3 25q0 76 -90 76q-58 0 -102 -31.5t-54 -79.5l-64 -301h-105l142 666l115 47l-62 -290q72 78 176 78q70 0 111 -30q46 -32 46 -93q0 -19 -5 -40z" />
    <glyph glyph-name="i" unicode="i" horiz-adv-x="223" 
d="M233 547q-24 0 -39.5 14t-15.5 36q0 29 24.5 52t53.5 23q24 0 38 -14.5t14 -35.5q0 -28 -23.5 -51.5t-51.5 -23.5zM271 505l-107 -505h-105l97 456z" />
    <glyph glyph-name="j" unicode="j" horiz-adv-x="222" 
d="M229 547q-22 0 -36.5 13.5t-14.5 35.5q0 30 24 53t55 23q22 0 36 -14t14 -35q0 -30 -24 -53t-54 -23zM271 505l-144 -679h-106l134 631z" />
    <glyph glyph-name="k" unicode="k" horiz-adv-x="476" 
d="M565 488l-241 -211l178 -277h-137l-141 244l-52 -244h-105l142 667l115 46l-87 -409l203 184h125z" />
    <glyph glyph-name="l" unicode="l" horiz-adv-x="239" 
d="M324 714l-152 -714h-105l142 667z" />
    <glyph glyph-name="m" unicode="m" horiz-adv-x="872" 
d="M875 330l-70 -330h-104l66 310q3 16 3 30q0 75 -81 75q-114 0 -137 -107l-65 -308h-103l64 303q3 16 3 31q0 80 -83 80q-111 0 -133 -106l-65 -308h-103l97 457l113 48l-15 -70q72 67 165 67q87 0 129 -80q72 79 184 79q66 0 103 -34.5t37 -93.5q0 -20 -5 -43z" />
    <glyph glyph-name="n" unicode="n" horiz-adv-x="584" 
d="M587 327l-70 -327h-105l65 307q3 13 3 25q0 37 -25.5 58t-66.5 21q-51 0 -96 -33q-47 -36 -59 -93l-61 -285h-105l97 457l112 48l-17 -83q74 78 176 78q73 0 115 -33t42 -96q0 -20 -5 -44z" />
    <glyph glyph-name="o" unicode="o" horiz-adv-x="607" 
d="M618 242q-23 -111 -117 -186t-201 -75q-98 0 -158 61q-58 58 -58 146q0 26 6 53q23 105 116 183t201 78q99 0 159 -62q57 -58 57 -146q0 -26 -5 -52zM517 247q4 18 4 36q0 56 -35.5 92.5t-93.5 36.5q-68 0 -125 -48.5t-72 -122.5q-5 -22 -5 -42q0 -58 35 -92.5t93 -34.5
q68 0 125 48.5t74 126.5z" />
    <glyph glyph-name="p" unicode="p" horiz-adv-x="587" 
d="M601 244q-25 -114 -104 -184t-180 -70q-92 0 -134 62l-42 -200l-115 -44l145 680h102l-13 -59q69 71 166 71q85 0 134 -48t49 -134q0 -35 -8 -74zM489 240q6 27 6 51q0 60 -34 92t-88 32t-93.5 -44t-55.5 -121q-9 -44 -9 -77q0 -103 85 -103q70 0 121 46t68 124z" />
    <glyph glyph-name="q" unicode="q" horiz-adv-x="586" 
d="M623 488l-135 -635l-114 -44l52 243q-64 -63 -162 -63q-83 0 -132.5 50t-49.5 134q0 30 7 63q24 114 99 187q80 78 189 78q100 0 133 -70l12 57h101zM467 238q9 41 9 73q0 103 -94 103q-59 0 -110 -46q-55 -49 -71 -126q-6 -27 -6 -50q0 -58 32.5 -89.5t87.5 -31.5
q117 0 152 167z" />
    <glyph glyph-name="r" unicode="r" horiz-adv-x="324" 
d="M450 499l-39 -101q-17 2 -24 2q-57 0 -100 -37q-46 -38 -60 -105l-55 -258h-105l97 457l112 48l-19 -91q20 37 71 62q48 25 94 25q8 0 28 -2z" />
    <glyph glyph-name="s" unicode="s" horiz-adv-x="429" 
d="M478 464l-44 -75q-62 40 -120 40q-35 0 -64 -19q-32 -22 -32 -55q0 -34 56 -56l105 -38q57 -29 57 -81q0 -12 -3 -26q-15 -72 -71 -117q-66 -54 -170 -54q-96 0 -167 45l47 87q46 -51 124 -51q45 0 81 21q44 25 44 67q0 37 -56 57l-103 35q-56 28 -56 84q0 15 4 32
q12 58 69 99q63 46 147 46q86 0 152 -41z" />
    <glyph glyph-name="t" unicode="t" horiz-adv-x="261" 
d="M381 488l-46 -86h-69l-85 -402h-105l85 402h-66l225 253l-35 -167h96z" />
    <glyph glyph-name="u" unicode="u" horiz-adv-x="579" 
d="M616 488l-68 -319q-39 -185 -263 -185q-189 0 -189 132q0 20 5 43l70 329h105l-65 -306q-4 -18 -4 -34q0 -74 97 -74q119 0 142 108l65 306h105z" />
    <glyph glyph-name="v" unicode="v" horiz-adv-x="474" 
d="M595 488l-302 -488h-112l-94 488h115l59 -377l219 377h115z" />
    <glyph glyph-name="w" unicode="w" horiz-adv-x="748" 
d="M841 488l-242 -488h-114l-37 352l-193 -352h-105l-35 488h109l13 -365l195 365h93l37 -365l169 365h110z" />
    <glyph glyph-name="x" unicode="x" horiz-adv-x="473" 
d="M590 488l-234 -237l138 -251h-129l-91 174l-165 -174h-130l244 251l-133 237h129l86 -166l157 166h128z" />
    <glyph glyph-name="y" unicode="y" horiz-adv-x="471" 
d="M601 488l-422 -662h-119l121 181l-96 481h114l63 -362l224 362h115z" />
    <glyph glyph-name="z" unicode="z" horiz-adv-x="473" 
d="M580 488l-390 -399h275l-47 -89h-433l394 399h-252l49 89h404z" />
    <glyph glyph-name="braceleft" unicode="{" horiz-adv-x="307" 
d="M433 807l-10 -43h-21q-47 0 -59 -57l-59 -281q-6 -30 -30.5 -52t-55.5 -25q55 -6 55 -61q0 -9 -2 -17l-60 -281q-4 -17 -4 -27q0 -29 39 -29h21l-9 -43h-76q-66 0 -66 50q0 9 2 18l68 320q2 10 2 18q0 49 -48 52q62 3 76 70l68 319q15 69 93 69h76z" />
    <glyph glyph-name="bar" unicode="|" horiz-adv-x="165" 
d="M267 698l-148 -698h-73l148 698h73z" />
    <glyph glyph-name="braceright" unicode="}" horiz-adv-x="307" 
d="M357 738l-68 -319q-2 -9 -2 -18q0 -49 48 -52q-27 -2 -48.5 -21t-27.5 -49l-68 -320q-14 -68 -93 -68h-75l9 43h21q47 0 59 56l60 281q6 30 30.5 52.5t54.5 25.5q-54 6 -54 61q0 8 2 16l59 281q3 15 3 25q0 32 -38 32h-21l10 43h75q66 0 66 -50q0 -9 -2 -19z" />
    <glyph glyph-name="asciitilde" unicode="~" horiz-adv-x="456" 
d="M499 413q-29 -133 -123 -133q-29 0 -88 26.5t-80 26.5q-30 0 -46 -54h-57q29 133 123 133q34 0 89 -27t74 -27q33 0 50 55h58z" />
    <glyph glyph-name="Adieresis" unicode="&#xc4;" horiz-adv-x="592" 
d="M599 0h-125l-22 209h-224l-109 -209h-126l391 698h121zM450 293l-26 303l-156 -303h182zM530 745q-43 0 -43 42q0 25 20 45t45 20q43 0 43 -41q0 -26 -19.5 -46t-45.5 -20zM359 745q-43 0 -43 42q0 26 20 46t46 20q19 0 31 -13t12 -31q0 -25 -20.5 -44.5t-45.5 -19.5z
" />
    <glyph glyph-name="Aring" unicode="&#xc5;" horiz-adv-x="592" 
d="M599 0h-125l-22 209h-224l-109 -209h-126l391 698h121zM450 293l-26 303l-156 -303h182zM440 722q-32 0 -52.5 18.5t-20.5 45.5q0 38 34 66.5t73 28.5q33 0 52.5 -18.5t19.5 -45.5q0 -39 -33.5 -67t-72.5 -28zM498 800q4 18 -6 32.5t-27 14.5q-16 0 -32.5 -14.5
t-19.5 -31.5t6.5 -30.5t25.5 -13.5q44 0 53 43z" />
    <glyph glyph-name="Ccedilla" unicode="&#xc7;" horiz-adv-x="644" 
d="M756 635l-67 -90q-61 61 -156 61q-102 0 -192 -76.5t-113 -182.5q-6 -26 -6 -52q0 -87 56.5 -146t147.5 -59q88 0 182 54l24 -87q-105 -70 -233 -70q-135 0 -217 84q-78 81 -78 204q0 37 8 75q32 152 171 259q131 101 270 101q119 0 203 -75zM429 -37l-130 -136l-53 9
l117 143z" />
    <glyph glyph-name="Eacute" unicode="&#xc9;" horiz-adv-x="501" 
d="M620 698l-44 -92h-264l-44 -207h247l-20 -91h-247l-45 -216h291l-46 -92h-381l148 698h405zM513 849l-185 -119l-42 35l173 130z" />
    <glyph glyph-name="Ntilde" unicode="&#xd1;" horiz-adv-x="745" 
d="M826 698l-148 -698h-128l-253 552l-117 -552h-113l148 698h131l250 -554l116 554h114zM677 838l-14 -68q-50 -13 -80 -13q-13 0 -59.5 10t-64.5 10q-34 0 -70 -17l14 67q37 11 66 11q23 0 65 -9.5t58 -9.5q55 0 85 19z" />
    <glyph glyph-name="Odieresis" unicode="&#xd6;" horiz-adv-x="811" 
d="M845 350q-31 -148 -154 -253q-128 -109 -284 -109q-132 0 -217 79.5t-85 205.5q0 37 8 76q32 151 159.5 255t282.5 104q133 0 215.5 -80t82.5 -203q0 -37 -8 -75zM730 348q6 29 6 57q0 89 -58 146.5t-145 57.5q-100 0 -192 -77.5t-114 -182.5q-6 -28 -6 -56
q0 -87 56 -145t147 -58q109 0 199 80q85 76 107 178zM639 747q-43 0 -43 42q0 25 20 45t45 20q43 0 43 -41q0 -26 -19.5 -46t-45.5 -20zM468 747q-43 0 -43 42q0 26 20 46t46 20q19 0 31 -13t12 -31q0 -25 -20.5 -44.5t-45.5 -19.5z" />
    <glyph glyph-name="Udieresis" unicode="&#xdc;" horiz-adv-x="660" 
d="M741 698l-100 -470q-24 -113 -108.5 -175.5t-203.5 -62.5q-104 0 -161 45q-60 47 -60 132q0 29 7 61l100 470h116l-98 -465q-4 -21 -4 -39q0 -105 117 -105q152 0 182 144l98 465h115zM568 747q-43 0 -43 42q0 25 20 45t45 20q43 0 43 -41q0 -26 -19.5 -46t-45.5 -20z
M397 747q-43 0 -43 42q0 26 20 46t46 20q19 0 31 -13t12 -31q0 -25 -20.5 -44.5t-45.5 -19.5z" />
    <glyph glyph-name="aacute" unicode="&#xe1;" horiz-adv-x="587" 
d="M624 488l-104 -488h-102l12 58q-61 -72 -167 -72q-90 0 -137 54q-44 49 -44 132q0 34 8 71q23 109 104.5 181t178.5 72q100 0 137 -65l12 57h102zM465 238q9 43 9 76q0 102 -87 102q-67 0 -115 -43q-52 -45 -70 -130q-6 -27 -6 -51q0 -118 115 -118q119 0 154 164z
M525 652l-185 -119l-42 35l173 130z" />
    <glyph glyph-name="agrave" unicode="&#xe0;" horiz-adv-x="587" 
d="M624 488l-104 -488h-102l12 58q-61 -72 -167 -72q-90 0 -137 54q-44 49 -44 132q0 34 8 71q23 109 104.5 181t178.5 72q100 0 137 -65l12 57h102zM465 238q9 43 9 76q0 102 -87 102q-67 0 -115 -43q-52 -45 -70 -130q-6 -27 -6 -51q0 -118 115 -118q119 0 154 164z
M474 569l-58 -35l-134 119l75 46z" />
    <glyph glyph-name="acircumflex" unicode="&#xe2;" horiz-adv-x="587" 
d="M624 488l-104 -488h-102l12 58q-61 -72 -167 -72q-90 0 -137 54q-44 49 -44 132q0 34 8 71q23 109 104.5 181t178.5 72q100 0 137 -65l12 57h102zM465 238q9 43 9 76q0 102 -87 102q-67 0 -115 -43q-52 -45 -70 -130q-6 -27 -6 -51q0 -118 115 -118q119 0 154 164z
M577 584l-33 -49l-124 76l-157 -76l-13 49l188 115z" />
    <glyph glyph-name="adieresis" unicode="&#xe4;" horiz-adv-x="587" 
d="M624 488l-104 -488h-102l12 58q-61 -72 -167 -72q-90 0 -137 54q-44 49 -44 132q0 34 8 71q23 109 104.5 181t178.5 72q100 0 137 -65l12 57h102zM465 238q9 43 9 76q0 102 -87 102q-67 0 -115 -43q-52 -45 -70 -130q-6 -27 -6 -51q0 -118 115 -118q119 0 154 164z
M505 564q-43 0 -43 42q0 25 20 45t45 20q43 0 43 -41q0 -26 -19.5 -46t-45.5 -20zM334 564q-43 0 -43 42q0 26 20 46t46 20q19 0 31 -13t12 -31q0 -25 -20.5 -44.5t-45.5 -19.5z" />
    <glyph glyph-name="atilde" unicode="&#xe3;" horiz-adv-x="587" 
d="M624 488l-104 -488h-102l12 58q-61 -72 -167 -72q-90 0 -137 54q-44 49 -44 132q0 34 8 71q23 109 104.5 181t178.5 72q100 0 137 -65l12 57h102zM465 238q9 43 9 76q0 102 -87 102q-67 0 -115 -43q-52 -45 -70 -130q-6 -27 -6 -51q0 -118 115 -118q119 0 154 164z
M577 655l-14 -68q-50 -13 -80 -13q-13 0 -59.5 10t-64.5 10q-34 0 -70 -17l14 67q37 11 66 11q23 0 65 -9.5t58 -9.5q55 0 85 19z" />
    <glyph glyph-name="aring" unicode="&#xe5;" horiz-adv-x="587" 
d="M624 488l-104 -488h-102l12 58q-61 -72 -167 -72q-90 0 -137 54q-44 49 -44 132q0 34 8 71q23 109 104.5 181t178.5 72q100 0 137 -65l12 57h102zM465 238q9 43 9 76q0 102 -87 102q-67 0 -115 -43q-52 -45 -70 -130q-6 -27 -6 -51q0 -118 115 -118q119 0 154 164z
M399 537q-32 0 -52.5 18.5t-20.5 45.5q0 38 34 66.5t73 28.5q33 0 52.5 -18.5t19.5 -45.5q0 -39 -33.5 -67t-72.5 -28zM457 615q4 18 -6 32.5t-27 14.5q-16 0 -32.5 -14.5t-19.5 -31.5t6.5 -30.5t25.5 -13.5q44 0 53 43z" />
    <glyph glyph-name="ccedilla" unicode="&#xe7;" horiz-adv-x="476" 
d="M550 461l-50 -82q-45 36 -102 36q-63 0 -123 -49.5t-75 -120.5q-4 -18 -4 -35q0 -58 39 -96t94 -38q62 0 112 29l17 -76q-77 -44 -164 -44q-91 0 -150 54.5t-59 144.5q0 29 6 59q23 106 115 183t194 77q97 0 150 -42zM316 -42l-130 -136l-53 9l117 143z" />
    <glyph glyph-name="eacute" unicode="&#xe9;" horiz-adv-x="564" 
d="M614 328l-407 -188q43 -73 115 -73q84 0 157 82l63 -45q-102 -120 -248 -120q-94 0 -152 57.5t-58 145.5q0 27 6 55q23 109 114.5 184t200.5 75q117 0 175 -86q24 -37 34 -87zM502 356q-25 66 -111 66q-65 0 -125 -50t-74 -115q-4 -20 -3 -46zM577 656l-185 -119l-42 35
l173 130z" />
    <glyph glyph-name="egrave" unicode="&#xe8;" horiz-adv-x="564" 
d="M614 328l-407 -188q43 -73 115 -73q84 0 157 82l63 -45q-102 -120 -248 -120q-94 0 -152 57.5t-58 145.5q0 27 6 55q23 109 114.5 184t200.5 75q117 0 175 -86q24 -37 34 -87zM502 356q-25 66 -111 66q-65 0 -125 -50t-74 -115q-4 -20 -3 -46zM463 570l-58 -35l-134 119
l75 46z" />
    <glyph glyph-name="ecircumflex" unicode="&#xea;" horiz-adv-x="564" 
d="M614 328l-407 -188q43 -73 115 -73q84 0 157 82l63 -45q-102 -120 -248 -120q-94 0 -152 57.5t-58 145.5q0 27 6 55q23 109 114.5 184t200.5 75q117 0 175 -86q24 -37 34 -87zM502 356q-25 66 -111 66q-65 0 -125 -50t-74 -115q-4 -20 -3 -46zM598 587l-33 -49l-124 76
l-157 -76l-13 49l188 115z" />
    <glyph glyph-name="edieresis" unicode="&#xeb;" horiz-adv-x="564" 
d="M614 328l-407 -188q43 -73 115 -73q84 0 157 82l63 -45q-102 -120 -248 -120q-94 0 -152 57.5t-58 145.5q0 27 6 55q23 109 114.5 184t200.5 75q117 0 175 -86q24 -37 34 -87zM502 356q-25 66 -111 66q-65 0 -125 -50t-74 -115q-4 -20 -3 -46zM506 561q-43 0 -43 42
q0 25 20 45t45 20q43 0 43 -41q0 -26 -19.5 -46t-45.5 -20zM335 561q-43 0 -43 42q0 26 20 46t46 20q19 0 31 -13t12 -31q0 -25 -20.5 -44.5t-45.5 -19.5z" />
    <glyph glyph-name="iacute" unicode="&#xed;" horiz-adv-x="223" 
d="M370 665l-185 -119l-42 35l173 130zM282 505l-107 -505h-107l97 456z" />
    <glyph glyph-name="igrave" unicode="&#xec;" horiz-adv-x="223" 
d="M330 577l-58 -35l-134 119l75 46zM285 505l-107 -505h-107l97 456z" />
    <glyph glyph-name="icircumflex" unicode="&#xee;" horiz-adv-x="223" 
d="M383 591l-28 -41l-102 64l-131 -64l-10 41l156 97zM283 505l-107 -505h-107l97 456z" />
    <glyph glyph-name="idieresis" unicode="&#xef;" horiz-adv-x="223" 
d="M326 559q-43 0 -43 42q0 25 20.5 45t45.5 20q42 0 42 -41q0 -26 -19.5 -46t-45.5 -20zM155 559q-43 0 -43 42q0 26 20 46t46 20q19 0 31 -13t12 -31q0 -25 -20.5 -44.5t-45.5 -19.5zM282 505l-107 -505h-107l97 456z" />
    <glyph glyph-name="ntilde" unicode="&#xf1;" horiz-adv-x="584" 
d="M587 327l-70 -327h-105l65 307q3 13 3 25q0 37 -25.5 58t-66.5 21q-51 0 -96 -33q-47 -36 -59 -93l-61 -285h-105l97 457l112 48l-17 -83q74 78 176 78q73 0 115 -33t42 -96q0 -20 -5 -44zM612 654l-14 -68q-50 -13 -80 -13q-13 0 -59.5 10t-64.5 10q-34 0 -70 -17l14 67
q37 11 66 11q23 0 65 -9.5t58 -9.5q55 0 85 19z" />
    <glyph glyph-name="oacute" unicode="&#xf3;" horiz-adv-x="607" 
d="M618 242q-23 -111 -117 -186t-201 -75q-98 0 -158 61q-58 58 -58 146q0 26 6 53q23 105 116 183t201 78q99 0 159 -62q57 -58 57 -146q0 -26 -5 -52zM517 247q4 18 4 36q0 56 -35.5 92.5t-93.5 36.5q-68 0 -125 -48.5t-72 -122.5q-5 -22 -5 -42q0 -58 35 -92.5t93 -34.5
q68 0 125 48.5t74 126.5zM579 661l-185 -119l-42 35l173 130z" />
    <glyph glyph-name="ograve" unicode="&#xf2;" horiz-adv-x="607" 
d="M618 242q-23 -111 -117 -186t-201 -75q-98 0 -158 61q-58 58 -58 146q0 26 6 53q23 105 116 183t201 78q99 0 159 -62q57 -58 57 -146q0 -26 -5 -52zM517 247q4 18 4 36q0 56 -35.5 92.5t-93.5 36.5q-68 0 -125 -48.5t-72 -122.5q-5 -22 -5 -42q0 -58 35 -92.5t93 -34.5
q68 0 125 48.5t74 126.5zM489 567l-58 -35l-134 119l75 46z" />
    <glyph glyph-name="ocircumflex" unicode="&#xf4;" horiz-adv-x="607" 
d="M618 242q-23 -111 -117 -186t-201 -75q-98 0 -158 61q-58 58 -58 146q0 26 6 53q23 105 116 183t201 78q99 0 159 -62q57 -58 57 -146q0 -26 -5 -52zM517 247q4 18 4 36q0 56 -35.5 92.5t-93.5 36.5q-68 0 -125 -48.5t-72 -122.5q-5 -22 -5 -42q0 -58 35 -92.5t93 -34.5
q68 0 125 48.5t74 126.5zM580 589l-33 -49l-124 76l-157 -76l-13 49l188 115z" />
    <glyph glyph-name="odieresis" unicode="&#xf6;" horiz-adv-x="607" 
d="M618 242q-23 -111 -117 -186t-201 -75q-98 0 -158 61q-58 58 -58 146q0 26 6 53q23 105 116 183t201 78q99 0 159 -62q57 -58 57 -146q0 -26 -5 -52zM517 247q4 18 4 36q0 56 -35.5 92.5t-93.5 36.5q-68 0 -125 -48.5t-72 -122.5q-5 -22 -5 -42q0 -58 35 -92.5t93 -34.5
q68 0 125 48.5t74 126.5zM502 556q-43 0 -43 42q0 25 20 45t45 20q43 0 43 -41q0 -26 -19.5 -46t-45.5 -20zM331 556q-43 0 -43 42q0 26 20 46t46 20q19 0 31 -13t12 -31q0 -25 -20.5 -44.5t-45.5 -19.5z" />
    <glyph glyph-name="otilde" unicode="&#xf5;" horiz-adv-x="607" 
d="M618 242q-23 -111 -117 -186t-201 -75q-98 0 -158 61q-58 58 -58 146q0 26 6 53q23 105 116 183t201 78q99 0 159 -62q57 -58 57 -146q0 -26 -5 -52zM517 247q4 18 4 36q0 56 -35.5 92.5t-93.5 36.5q-68 0 -125 -48.5t-72 -122.5q-5 -22 -5 -42q0 -58 35 -92.5t93 -34.5
q68 0 125 48.5t74 126.5zM565 649l-14 -68q-50 -13 -80 -13q-13 0 -59.5 10t-64.5 10q-34 0 -70 -17l14 67q37 11 66 11q23 0 65 -9.5t58 -9.5q55 0 85 19z" />
    <glyph glyph-name="uacute" unicode="&#xfa;" horiz-adv-x="579" 
d="M616 488l-68 -319q-39 -185 -263 -185q-189 0 -189 132q0 20 5 43l70 329h105l-65 -306q-4 -18 -4 -34q0 -74 97 -74q119 0 142 108l65 306h105zM559 653l-185 -119l-42 35l173 130z" />
    <glyph glyph-name="ugrave" unicode="&#xf9;" horiz-adv-x="579" 
d="M616 488l-68 -319q-39 -185 -263 -185q-189 0 -189 132q0 20 5 43l70 329h105l-65 -306q-4 -18 -4 -34q0 -74 97 -74q119 0 142 108l65 306h105zM481 565l-58 -35l-134 119l75 46z" />
    <glyph glyph-name="ucircumflex" unicode="&#xfb;" horiz-adv-x="579" 
d="M616 488l-68 -319q-39 -185 -263 -185q-189 0 -189 132q0 20 5 43l70 329h105l-65 -306q-4 -18 -4 -34q0 -74 97 -74q119 0 142 108l65 306h105zM564 589l-33 -49l-124 76l-157 -76l-13 49l188 115z" />
    <glyph glyph-name="udieresis" unicode="&#xfc;" horiz-adv-x="579" 
d="M616 488l-68 -319q-39 -185 -263 -185q-189 0 -189 132q0 20 5 43l70 329h105l-65 -306q-4 -18 -4 -34q0 -74 97 -74q119 0 142 108l65 306h105zM491 562q-43 0 -43 42q0 25 20 45t45 20q43 0 43 -41q0 -26 -19.5 -46t-45.5 -20zM320 562q-43 0 -43 42q0 26 20 46t46 20
q19 0 31 -13t12 -31q0 -25 -20.5 -44.5t-45.5 -19.5z" />
    <glyph glyph-name="dagger" unicode="&#x2020;" horiz-adv-x="586" 
d="M674 516l-20 -92h-220l-131 -616h-102l131 616h-221l20 92l221 -1l48 223h100l-48 -223z" />
    <glyph glyph-name="degree" unicode="&#xb0;" horiz-adv-x="353" 
d="M273 450q-47 0 -77 29.5t-30 73.5q0 62 50 110t112 48q47 0 76.5 -29t29.5 -74q0 -62 -49.5 -110t-111.5 -48zM390 598q0 30 -19.5 50.5t-51.5 20.5q-42 0 -76 -32.5t-34 -74.5q0 -29 20.5 -49t52.5 -20q41 0 74.5 32t33.5 73z" />
    <glyph glyph-name="cent" unicode="&#xa2;" horiz-adv-x="476" 
d="M550 461l-50 -82q-44 34 -105 34l-71 -335q8 -1 17 -1q56 0 100 28l17 -76q-83 -44 -158 -44l-11 -53h-56l12 57q-69 12 -114.5 68t-45.5 132q0 25 5 50q21 99 97 171.5t170 87.5l13 60h56l-13 -57q80 0 137 -40zM332 395q-32 -14 -57 -34q-59 -48 -74 -119
q-4 -17 -4 -33q0 -76 71 -113z" />
    <glyph glyph-name="sterling" unicode="&#xa3;" horiz-adv-x="479" 
d="M552 650l-46 -83q-48 61 -108 61q-56 0 -87.5 -38.5t-31.5 -93.5q0 -53 18 -125h156l-12 -56h-137q6 -30 6 -63q0 -32 -6 -58q-20 -94 -105 -116q37 -6 77 -6q120 0 213 42l-39 -98q-108 -32 -211 -32q-115 0 -205 36l37 81q16 -8 41 -8q50 0 76 34q23 30 23 80
q0 47 -14 109h-80l12 57h57q-12 52 -12 103q0 31 5 57q15 74 82 125t147 51t144 -59z" />
    <glyph glyph-name="section" unicode="&#xa7;" horiz-adv-x="584" 
d="M636 511h-102q2 11 2 22q0 41 -28.5 69.5t-71.5 28.5t-82 -29t-47 -65q-2 -10 -2 -20q0 -52 78 -82l144 -53q78 -39 78 -111q0 -17 -4 -37q-22 -103 -134 -147q33 -38 33 -87q0 -14 -3 -28q-17 -76 -84 -128q-72 -54 -168 -54q-101 0 -153 50q-44 41 -44 103q0 24 7 46
h101q-5 -16 -5 -33q0 -39 29 -65t79 -26q48 0 86.5 33.5t38.5 80.5q0 53 -79 83l-146 52q-79 37 -79 106q0 15 4 33q23 110 144 156q-36 36 -36 90q0 92 87 153q78 56 173 56q84 0 137 -49q50 -47 50 -115q0 -16 -3 -33zM493 219q9 41 -80 94q-82 48 -125 48
q-35 0 -63 -34.5t-28 -70.5q0 -54 98 -92q71 -27 107 -27q31 0 55 20q28 23 36 62z" />
    <glyph glyph-name="bullet" unicode="&#x2022;" horiz-adv-x="353" 
d="M223 218q-47 0 -76.5 29t-29.5 74q0 62 49.5 110.5t112.5 48.5q47 0 76.5 -29t29.5 -74q0 -62 -49.5 -110.5t-112.5 -48.5z" />
    <glyph glyph-name="paragraph" unicode="&#xb6;" horiz-adv-x="579" 
d="M600 605l-129 -605h-53l129 605h53zM681 698l-10 -51h-300q-65 0 -117 -51.5t-52 -116.5q0 -47 31 -78t79 -31h67l50 235h53l-129 -605h-53l68 320h-67q-67 0 -109 42t-42 107q0 20 4 40q16 78 83 133.5t144 55.5h300z" />
    <glyph glyph-name="germandbls" unicode="&#xdf;" horiz-adv-x="567" 
d="M587 543q-15 -72 -88 -120q-51 -34 -72 -34q148 -18 148 -142q0 -22 -5 -46q-20 -95 -97 -153.5t-179 -58.5q-35 0 -68 10l30 76q17 -8 42 -8q71 0 120.5 49t49.5 120q0 102 -141 102q-10 0 -38 -3l18 86q153 0 176 109q3 13 3 25q0 74 -84 74q-97 0 -122 -119l-108 -510
h-105l112 528q18 83 84.5 132.5t157.5 49.5q78 0 125 -41q44 -38 44 -96q0 -15 -3 -30z" />
    <glyph glyph-name="registered" unicode="&#xae;" horiz-adv-x="837" 
d="M856 352q-34 -162 -169 -266q-125 -97 -269 -97q-134 0 -215 81t-81 204q0 38 8 76q32 151 161 256.5t278 105.5q127 0 211 -80.5t84 -204.5q0 -37 -8 -75zM812 416q0 106 -66 177q-70 75 -185 75q-132 0 -243 -94t-139 -224q-7 -33 -7 -66q0 -106 67 -177
q70 -74 188 -74q148 0 266.5 117.5t118.5 265.5zM653 457q-12 -54 -50.5 -88t-93.5 -34l99 -208h-69l-101 224l-48 -224h-58l96 454h107q122 0 122 -90q0 -15 -4 -34zM594 451q3 12 3 22q0 60 -77 60h-44l-34 -163h38q97 0 114 81z" />
    <glyph glyph-name="copyright" unicode="&#xa9;" horiz-adv-x="837" 
d="M856 352q-34 -162 -169 -266q-125 -97 -269 -97q-134 0 -215 81t-81 204q0 38 8 76q32 151 161 256.5t278 105.5q127 0 211 -80.5t84 -204.5q0 -37 -8 -75zM812 416q0 106 -66 177q-70 75 -185 75q-132 0 -243 -94t-139 -224q-7 -33 -7 -66q0 -106 67 -177
q70 -74 188 -74q148 0 266.5 117.5t118.5 265.5zM699 527l-38 -43q-42 47 -113 47q-76 0 -139.5 -53.5t-80.5 -135.5q-4 -21 -4 -41q0 -61 39.5 -100t105.5 -39q68 0 131 45l21 -41q-77 -56 -162 -56q-91 0 -143.5 50.5t-52.5 130.5q0 115 89 203.5t205 88.5q88 0 142 -56z
" />
    <glyph glyph-name="trademark" unicode="&#x2122;" horiz-adv-x="730" 
d="M793 761l-28 -349h-56l26 259l-143 -259h-54l-34 259l-82 -259h-57l119 349h57l38 -282l157 282h57zM421 761l-26 -49h-72l-63 -300h-57l63 300h-77l11 49h221z" />
    <glyph glyph-name="acute" unicode="&#xb4;" horiz-adv-x="175" 
d="M367 650l-185 -119l-42 35l173 130z" />
    <glyph glyph-name="dieresis" unicode="&#xa8;" horiz-adv-x="280" 
d="M356 643q-43 0 -43 42q0 25 20 45t45 20q43 0 43 -41q0 -26 -19.5 -46t-45.5 -20zM185 643q-43 0 -43 42q0 26 20 46t46 20q19 0 31 -13t12 -31q0 -25 -20.5 -44.5t-45.5 -19.5z" />
    <glyph glyph-name="AE" unicode="&#xc6;" horiz-adv-x="872" 
d="M992 698l-44 -92h-267l-44 -206h249l-19 -90h-248l-46 -217h292l-47 -93h-380l44 205h-207l-152 -205h-130l547 698h452zM565 597l-228 -306h163z" />
    <glyph glyph-name="Oslash" unicode="&#xd8;" horiz-adv-x="811" 
d="M922 685l-115 -97q45 -70 45 -167q0 -173 -136.5 -302.5t-312.5 -129.5q-134 0 -219 82l-114 -97l-27 33l116 99q-55 75 -55 176q0 167 142 298q140 128 309 128q137 0 224 -90l118 99zM686 546q-58 63 -146 63q-97 1 -191.5 -77t-117.5 -183q-6 -30 -6 -58
q0 -57 28 -110zM729 351q6 28 6 55q0 58 -26 106l-427 -363q51 -56 146 -56q97 0 181 64q94 73 120 194z" />
    <glyph glyph-name="plusminus" unicode="&#xb1;" 
d="M608 399l-19 -90h-167l-36 -169h-93l36 169h-170l19 90h171l36 169h91l-36 -169h168zM546 109l-19 -90h-430l19 90h430z" />
    <glyph glyph-name="yen" unicode="&#xa5;" horiz-adv-x="631" 
d="M754 698l-233 -288h148l-15 -72h-192l-26 -31l-4 -21h211l-17 -78h-211l-44 -208h-114l44 208h-206l17 79h206l4 20l-10 28h-189l16 76h147l-113 287h134l96 -286l220 286h131z" />
    <glyph glyph-name="mu" unicode="&#xb5;" horiz-adv-x="579" 
d="M616 488l-68 -319q-39 -185 -263 -185q-67 0 -114 21l-23 -167q-5 -33 -66 -35q-18 -1 -35.5 8t-14.5 24l139 653h105l-65 -306q-4 -18 -4 -34q0 -74 97 -74q119 0 142 108l65 306h105z" />
    <glyph glyph-name="mu" unicode="&#x3bc;" horiz-adv-x="579" 
d="M616 488l-68 -319q-39 -185 -263 -185q-67 0 -114 21l-23 -167q-5 -33 -66 -35q-18 -1 -35.5 8t-14.5 24l139 653h105l-65 -306q-4 -18 -4 -34q0 -74 97 -74q119 0 142 108l65 306h105z" />
    <glyph glyph-name="ordfeminine" unicode="&#xaa;" horiz-adv-x="433" 
d="M535 698l-68 -321h-65l15 71q-49 -78 -139 -78q-51 0 -86 32q-38 35 -38 94q0 20 5 42q15 71 72.5 121t119.5 50q87 0 105 -77l14 66h65zM457 329l-13 -59h-332l13 59h332zM438 539q3 13 3 26q0 38 -23.5 62.5t-59.5 24.5q-44 0 -82.5 -33t-48.5 -80q-3 -13 -3 -26
q0 -39 24.5 -62.5t57.5 -23.5q45 0 81 28q40 31 51 84z" />
    <glyph glyph-name="ordmasculine" unicode="&#xba;" horiz-adv-x="433" 
d="M503 540q-16 -77 -79 -125q-59 -47 -131 -47q-63 0 -99.5 36.5t-36.5 94.5q0 20 4 41q16 73 77 123.5t130 50.5q58 0 98 -36q41 -39 41 -100q0 -18 -4 -38zM453 329l-13 -59h-332l13 59h332zM436 538q3 16 3 30q0 40 -23.5 62.5t-60.5 22.5q-42 0 -79 -30
q-39 -33 -50 -83q-3 -13 -3 -27q0 -37 22 -61.5t60 -24.5q47 0 84 31.5t47 79.5z" />
    <glyph glyph-name="ae" unicode="&#xe6;" horiz-adv-x="942" 
d="M991 328l-412 -190q40 -66 118 -66q88 0 155 78l63 -42q-44 -57 -109.5 -90.5t-136.5 -33.5q-101 0 -161 76l-13 -60h-86l10 47q-64 -59 -170 -59q-79 0 -124 55q-42 51 -42 135q0 35 8 72q22 104 106 177t175 73q89 0 133 -57l10 45h85l-14 -64q82 80 187 80
q80 0 141 -47q63 -50 77 -129zM877 358q-25 65 -114 64q-70 0 -128 -47.5t-72 -114.5q-4 -19 -4 -50zM468 248q8 37 8 67q0 104 -89 105q-57 0 -107 -39q-60 -48 -79 -135q-6 -27 -6 -51q0 -57 32 -88t85 -31q119 0 156 172z" />
    <glyph glyph-name="oslash" unicode="&#xf8;" horiz-adv-x="607" 
d="M656 467l-66 -57q35 -49 35 -115q0 -28 -6 -57q-22 -105 -116 -180.5t-201 -75.5q-94 0 -155 58l-65 -55l-24 31l64 51q-37 54 -37 123q0 28 6 58q21 98 114 176q97 80 206 80q94 0 155 -66l65 55zM483 374q-38 38 -97 38q-65 -1 -119.5 -50t-70.5 -121q-4 -20 -4 -40
q0 -35 14 -64zM515 242q5 21 5 40q0 34 -15 61l-278 -237q35 -34 92 -34q72 0 126 48t70 122z" />
    <glyph glyph-name="questiondown" unicode="&#xbf;" horiz-adv-x="380" 
d="M341 572q-28 0 -43 16t-15 39q0 33 27 58t60 25q24 0 39.5 -15.5t15.5 -39.5q0 -32 -26 -57.5t-58 -25.5zM399 50q-96 -58 -189 -58q-72 0 -112.5 37t-40.5 95q0 18 4 37q13 61 66 119l94 91q51 49 59 87q5 22 6 63h82q-1 -30 -7 -81q-10 -47 -97.5 -138t-96.5 -132
q-2 -12 -2 -23q0 -33 20 -54t56 -21q70 0 146 62z" />
    <glyph glyph-name="exclamdown" unicode="&#xa1;" horiz-adv-x="254" 
d="M249 569q-25 0 -41 15.5t-16 39.5q0 33 26.5 57.5t60.5 24.5q23 0 38.5 -16t15.5 -38q0 -32 -26 -57.5t-58 -25.5zM275 516l-88 -516h-122l131 516h79z" />
    <glyph glyph-name="logicalnot" unicode="&#xac;" horiz-adv-x="1200" 
d="M1162 -83h-1123v765h1123v-765zM1067 255v18q-32 0 -38 2q-15 5 -15 30v250q0 56 3 63q7 15 50 15v18h-160v-18q42 0 49 -12q4 -7 4 -56v-258q0 -25 -15 -31q-7 -3 -38 -3v-18h160zM1141 27q0 40 -40 56q-38 9 -77 19.5t-39 40.5q0 21 15.5 33.5t37.5 12.5q33 0 58 -29
q5 -20 5 -35l16 -1q1 23 7 69q-42 13 -80 13q-103 0 -103 -82q0 -42 40 -58l75 -18q40 -12 40 -43q0 -24 -18.5 -38t-43.5 -14q-42 0 -57 15.5t-15 55.5h-16q0 -11 -2 -33t-2 -34q0 -23 82 -23q46 0 79 23q38 26 38 70zM941 184h-86q1 33 5 95q60 49 60 102q0 71 -60 89
q-55 8 -110 15q-60 12 -60 68q0 38 29 60q26 20 65 20q53 0 82 -26q5 -11 5 -54h18q0 47 9 80q-52 21 -111 21q-62 0 -102 -29q-45 -34 -45 -93q0 -70 60 -88q55 -8 111 -17q60 -12 60 -68q0 -41 -32.5 -63.5t-75.5 -22.5q-25 0 -53 8q-34 11 -41 29q-1 3 -1 48h-19
q0 -65 -3 -87q51 -21 106 -21q27 0 51 6q5 -40 5 -72q-19 -11 -45 -19v-12h45v-157q0 -62 64 -62q12 0 36 6l27 34l-8 11q-13 -15 -32 -15q-28 0 -36 28q-4 13 -4 52v108q75 0 80 -1zM802 -60v17q-37 0 -43 12q-1 3 -1 49v92q0 96 -93 96q-52 0 -93 -53q0 44 -4 53
q-42 -19 -93 -22v-17h29q18 -3 18 -16v-172q0 -19 -16 -22h-31v-17h144l-1 17q-30 0 -39.5 9t-9.5 30q0 6 1 24t1 30q0 66 6 82q13 38 67 38q65 0 65 -85q0 -107 -4 -145h97zM680 633v18h-119v-18q50 0 50 -13q0 -24 -39 -155l-39 -129l-116 318h-14l-122 -315
q-41 172 -60 269q-4 6 -3 10q0 15 49 15v18h-143v-18q26 0 32 -6.5t13 -35.5l31 -119q19 -76 23 -118q-23 0 -58.5 -32.5t-46.5 -57.5q-7 -15 -7 -81l-19.5 -9.5t-20.5 -10.5v-10l40 4l1 -153q0 -32 -8.5 -39.5t-41.5 -7.5v-17h155v17q-37 0 -43 3q-15 6 -15 38q0 26 1 80
v80q24 1 71 -1l5 25l-2 2h-74v36q0 49 3 61q8 32 41 32q17 0 29 -9l11 -54h29q44 131 122 311q41 -103 112 -311h30q16 65 54 198q46 161 60 181q7 4 29 4zM487 80q0 57 -36 91.5t-93 34.5q-61 0 -102 -36.5t-41 -96.5q0 -59 34 -99t92 -40q64 0 105 41t41 105zM434 56
q0 -42 -16 -70q-20 -33 -59 -33q-46 0 -70 49q-19 39 -19 90q0 39 18 66q21 31 57 31q47 0 71 -45q18 -36 18 -88z" />
    <glyph glyph-name="florin" unicode="&#x192;" horiz-adv-x="492" 
d="M613 686l-52 -83q-20 13 -41 13q-49 0 -78 -84l-15 -44h99l-50 -86h-77l-127 -375q-25 -74 -76 -116t-114 -42q-45 0 -81 17l52 84q11 -13 37 -13q54 0 82 83l122 362h-67l50 86h46l19 58q24 73 74.5 115t113.5 42q47 0 83 -17z" />
    <glyph glyph-name="guillemotleft" unicode="&#xab;" horiz-adv-x="468" 
d="M535 412l-192 -173l118 -170l-69 -53l-155 223l253 226zM370 412l-192 -173l118 -170l-69 -53l-155 223l253 226z" />
    <glyph glyph-name="guillemotright" unicode="&#xbb;" horiz-adv-x="465" 
d="M495 239l-249 -222l-45 53l190 169l-118 172l68 53zM330 239l-249 -222l-45 53l190 169l-118 172l68 53z" />
    <glyph glyph-name="ellipsis" unicode="&#x2026;" horiz-adv-x="602" 
d="M500 -10q-22 0 -35.5 13.5t-13.5 34.5q0 29 23 51.5t52 22.5q22 0 35.5 -13.5t13.5 -34.5q0 -29 -23 -51.5t-52 -22.5zM299 -10q-22 0 -35.5 13.5t-13.5 34.5q0 29 23 51.5t52 22.5q22 0 35.5 -13.5t13.5 -34.5q0 -29 -23 -51.5t-52 -22.5zM98 -10q-22 0 -35.5 13.5
t-13.5 34.5q0 29 23 51.5t52 22.5q22 0 35.5 -13.5t13.5 -34.5q0 -29 -23 -51.5t-52 -22.5z" />
    <glyph glyph-name="nonbreakingspace" unicode="&#xa0;" horiz-adv-x="243" 
 />
    <glyph glyph-name="Agrave" unicode="&#xc0;" horiz-adv-x="592" 
d="M599 0h-125l-22 209h-224l-109 -209h-126l391 698h121zM450 293l-26 303l-156 -303h182zM476 753l-58 -35l-134 119l75 46z" />
    <glyph glyph-name="Atilde" unicode="&#xc3;" horiz-adv-x="592" 
d="M599 0h-125l-22 209h-224l-109 -209h-126l391 698h121zM450 293l-26 303l-156 -303h182zM590 836l-14 -68q-50 -13 -80 -13q-13 0 -59.5 10t-64.5 10q-34 0 -70 -17l14 67q37 11 66 11q23 0 65 -9.5t58 -9.5q55 0 85 19z" />
    <glyph glyph-name="Otilde" unicode="&#xd5;" horiz-adv-x="811" 
d="M845 350q-31 -148 -154 -253q-128 -109 -284 -109q-132 0 -217 79.5t-85 205.5q0 37 8 76q32 151 159.5 255t282.5 104q133 0 215.5 -80t82.5 -203q0 -37 -8 -75zM730 348q6 29 6 57q0 89 -58 146.5t-145 57.5q-100 0 -192 -77.5t-114 -182.5q-6 -28 -6 -56
q0 -87 56 -145t147 -58q109 0 199 80q85 76 107 178zM699 834l-14 -68q-50 -13 -80 -13q-13 0 -59.5 10t-64.5 10q-34 0 -70 -17l14 67q37 11 66 11q23 0 65 -9.5t58 -9.5q55 0 85 19z" />
    <glyph glyph-name="OE" unicode="&#x152;" horiz-adv-x="919" 
d="M1037 698l-44 -93h-265l-44 -204h248l-19 -90h-247l-46 -218h291l-46 -93h-366q-46 -11 -97 -11q-139 0 -221 85q-76 79 -76 202q0 38 8 77q29 137 153 241q131 111 289 111q12 0 87 -7h395zM603 560q2 8 2 14q0 31 -69 31q-102 0 -192 -73q-93 -75 -116 -184
q-6 -29 -6 -56q0 -91 64 -148q61 -53 148 -53q44 0 59 9.5t22 44.5z" />
    <glyph glyph-name="oe" unicode="&#x153;" horiz-adv-x="991" 
d="M1041 331l-412 -190q36 -70 112 -70q44 0 88.5 22.5t71.5 57.5l66 -44q-45 -56 -110.5 -88.5t-133.5 -32.5q-67 0 -117 30t-70 82q-98 -115 -247 -115q-91 0 -148 57t-57 145q0 26 6 54q24 111 114 186q94 78 211 78q134 0 181 -116q98 114 232 114q82 0 139.5 -46.5
t73.5 -123.5zM930 359q-32 63 -120 63q-66 0 -125 -49.5t-73 -113.5q-5 -22 -4 -48zM515 247q5 23 5 43q0 57 -35 89t-97 32q-67 0 -124.5 -48t-72.5 -118q-4 -21 -4 -40q0 -58 36 -94t96 -36q67 0 120 42q59 47 76 130z" />
    <glyph glyph-name="endash" unicode="&#x2013;" horiz-adv-x="484" 
d="M516 294l-16 -79h-432l16 79h432z" />
    <glyph glyph-name="emdash" unicode="&#x2014;" horiz-adv-x="660" 
d="M696 294l-16 -79h-612l16 79h612z" />
    <glyph glyph-name="quotedblleft" unicode="&#x201c;" horiz-adv-x="369" 
d="M492 681q-62 -54 -91 -109q46 0 46 -48q0 -32 -27 -59t-59 -27q-24 0 -40.5 16t-16.5 43q0 48 54 116q42 52 95 93zM316 681q-62 -54 -91 -109q46 0 46 -48q0 -32 -27 -59t-59 -27q-24 0 -40.5 16t-16.5 43q0 48 54 116q42 52 95 93z" />
    <glyph glyph-name="quotedblright" unicode="&#x201d;" horiz-adv-x="369" 
d="M334 438l-39 25q61 54 92 109q-47 0 -47 48q0 32 27 59t59 27q24 0 40.5 -16t16.5 -43q0 -48 -54 -116q-42 -52 -95 -93zM158 438l-39 25q61 54 92 109q-47 0 -47 48q0 32 27 59t59 27q24 0 40.5 -16t16.5 -43q0 -48 -54 -116q-42 -52 -95 -93z" />
    <glyph glyph-name="quoteleft" unicode="&#x2018;" horiz-adv-x="193" 
d="M317 682q-63 -58 -91 -109q46 0 46 -48q0 -32 -27 -59t-59 -27q-24 0 -40.5 16t-16.5 43q0 48 54 116q42 52 95 93z" />
    <glyph glyph-name="quoteright" unicode="&#x2019;" horiz-adv-x="193" 
d="M159 439l-38 25q63 58 91 109q-46 0 -46 49q0 32 26.5 58.5t58.5 26.5q24 0 40.5 -16t16.5 -43q0 -49 -54 -116q-42 -52 -95 -93z" />
    <glyph glyph-name="divide" unicode="&#xf7;" 
d="M402 463q-25 0 -40.5 15.5t-15.5 39.5q0 32 26.5 57.5t59.5 25.5q25 0 40.5 -15.5t15.5 -39.5q0 -32 -26.5 -57.5t-59.5 -25.5zM608 399l-19 -90h-430l19 90h430zM324 95q-25 0 -40.5 15.5t-15.5 39.5q0 32 26.5 57.5t59.5 25.5q25 0 40.5 -15.5t15.5 -39.5
q0 -32 -26.5 -57.5t-59.5 -25.5z" />
    <glyph glyph-name="ydieresis" unicode="&#xff;" horiz-adv-x="471" 
d="M601 488l-422 -662h-119l121 181l-96 481h114l63 -362l224 362h115zM442 560q-43 0 -43 42q0 25 20 45t45 20q43 0 43 -41q0 -26 -19.5 -46t-45.5 -20zM271 560q-43 0 -43 42q0 26 20 46t46 20q19 0 31 -13t12 -31q0 -25 -20.5 -44.5t-45.5 -19.5z" />
    <glyph glyph-name="Ydieresis" unicode="&#x178;" horiz-adv-x="524" 
d="M505 748q-43 0 -43 42q0 25 20 43.5t45 18.5q43 0 43 -40q0 -25 -20 -44.5t-45 -19.5zM335 748q-43 0 -43 42q0 25 20 44t45 19q19 0 31.5 -12.5t12.5 -30.5q0 -24 -21 -43t-45 -19zM694 698l-317 -391l-65 -307h-114l65 307l-149 391h134l94 -287l221 287h131z" />
    <glyph glyph-name="fraction" unicode="&#x2044;" horiz-adv-x="226" 
d="M470 743l-505 -785h-54l506 785h53z" />
    <glyph glyph-name="currency" unicode="&#xa4;" horiz-adv-x="445" 
d="M503 490l-72 -56q13 -19 13 -51q0 -16 -4 -33q-10 -49 -46 -85l47 -61l-39 -31l-45 61q-41 -28 -92 -28q-48 0 -77 28l-74 -60l-24 32l73 60q-13 24 -13 56q0 15 3 30q9 42 44 82l-46 56l37 34l48 -60q43 29 88 29q48 0 82 -28l72 60zM394 369q0 32 -21.5 54t-55.5 22
q-45 0 -82.5 -35t-37.5 -80q0 -33 22 -55t57 -22q45 0 81.5 35.5t36.5 80.5z" />
    <glyph glyph-name="guilsinglleft" unicode="&#x2039;" horiz-adv-x="303" 
d="M370 412l-192 -173l118 -170l-69 -53l-155 223l253 226z" />
    <glyph glyph-name="guilsinglright" unicode="&#x203a;" horiz-adv-x="300" 
d="M330 239l-249 -222l-45 53l190 169l-118 172l68 53z" />
    <glyph glyph-name="fi" unicode="&#xf001;" horiz-adv-x="459" 
d="M488 547q-24 0 -39.5 14t-15.5 36q0 29 24.5 52t53.5 23q24 0 38 -14.5t14 -35.5q0 -28 -23.5 -51.5t-51.5 -23.5zM526 505l-107 -505h-105l97 456zM447 695l-41 -84q-24 13 -44 13q-50 0 -67 -83l-11 -53h99l-40 -86h-77l-85 -402h-105l85 402h-67l39 86h47l14 66
q15 73 60.5 115.5t108.5 42.5q44 0 84 -17z" />
    <glyph glyph-name="fl" unicode="&#xf002;" horiz-adv-x="462" 
d="M584 714l-152 -714h-105l142 667zM447 695l-41 -84q-24 13 -44 13q-50 0 -67 -83l-11 -53h99l-40 -86h-77l-85 -402h-105l85 402h-67l39 86h47l14 66q15 73 60.5 115.5t108.5 42.5q44 0 84 -17z" />
    <glyph glyph-name="daggerdbl" unicode="&#x2021;" horiz-adv-x="586" 
d="M674 518l-19 -91l-220 1l-24 -114h220l-20 -91l-219 1l-89 -416h-102l89 416l-222 -1l20 91h221l24 114l-221 -1l19 91h222l47 220h100l-47 -220h221z" />
    <glyph glyph-name="periodcentered" unicode="&#xb7;" horiz-adv-x="208" 
d="M150 219q-24 0 -40 16t-16 39q0 32 26.5 57.5t58.5 25.5q24 0 40 -15t16 -38q0 -34 -25.5 -59.5t-59.5 -25.5z" />
    <glyph glyph-name="periodcentered" unicode="&#x2219;" horiz-adv-x="208" 
d="M150 219q-24 0 -40 16t-16 39q0 32 26.5 57.5t58.5 25.5q24 0 40 -15t16 -38q0 -34 -25.5 -59.5t-59.5 -25.5z" />
    <glyph glyph-name="quotesinglbase" unicode="&#x201a;" horiz-adv-x="187" 
d="M30 -141l-39 25q61 54 92 109q-47 0 -47 48q0 32 27 59t59 27q24 0 40.5 -16t16.5 -43q0 -48 -54 -116q-42 -52 -95 -93z" />
    <glyph glyph-name="quotedblbase" unicode="&#x201e;" horiz-adv-x="363" 
d="M204 -141l-39 25q61 54 92 109q-47 0 -47 48q0 32 27 59t59 27q24 0 40.5 -16t16.5 -43q0 -48 -54 -116q-42 -52 -95 -93zM30 -141l-39 25q61 54 92 109q-47 0 -47 48q0 32 27 59t59 27q24 0 40.5 -16t16.5 -43q0 -48 -54 -116q-42 -52 -95 -93z" />
    <glyph glyph-name="perthousand" unicode="&#x2030;" horiz-adv-x="1068" 
d="M879 -6q-54 0 -90 38t-36 97q0 79 61 146t139 67q56 0 91.5 -38.5t35.5 -96.5q0 -79 -61 -146t-140 -67zM265 353q-56 0 -92.5 37.5t-36.5 97.5q0 19 4 40q14 69 72.5 122t124.5 53q56 0 92 -37t36 -97q0 -81 -59 -147q-61 -69 -141 -69zM756 698l-604 -698h-60l605 698
h59zM707 171q-16 -77 -73.5 -127t-123.5 -50q-58 0 -92.5 39t-34.5 97q0 19 4 38q15 72 74.5 123t123.5 51q58 0 92 -39.5t34 -95.5q0 -18 -4 -36zM1015 195q0 38 -21 63t-54 25q-48 0 -86 -49q-34 -46 -34 -97q0 -37 19 -60.5t52 -23.5q50 0 88 47q36 44 36 95zM396 557
q0 37 -18 61.5t-53 24.5q-48 0 -86 -49q-35 -45 -35 -95q0 -37 18.5 -61t53.5 -24q50 0 86 48q34 44 34 95zM645 195q0 36 -19.5 62t-52.5 26q-50 0 -86 -47.5t-36 -98.5q0 -84 71 -84q50 0 88 46q35 44 35 96z" />
    <glyph glyph-name="Acircumflex" unicode="&#xc2;" horiz-adv-x="592" 
d="M599 0h-125l-22 209h-224l-109 -209h-126l391 698h121zM450 293l-26 303l-156 -303h182zM614 765l-33 -49l-124 76l-157 -76l-13 49l188 115z" />
    <glyph glyph-name="Ecircumflex" unicode="&#xca;" horiz-adv-x="501" 
d="M620 698l-44 -92h-264l-44 -207h247l-20 -91h-247l-45 -216h291l-46 -92h-381l148 698h405zM586 781l-33 -49l-124 76l-157 -76l-13 49l188 115z" />
    <glyph glyph-name="Aacute" unicode="&#xc1;" horiz-adv-x="592" 
d="M599 0h-125l-22 209h-224l-109 -209h-126l391 698h121zM450 293l-26 303l-156 -303h182zM586 843l-185 -119l-42 35l173 130z" />
    <glyph glyph-name="Edieresis" unicode="&#xcb;" horiz-adv-x="501" 
d="M620 698l-44 -92h-264l-44 -207h247l-20 -91h-247l-45 -216h291l-46 -92h-381l148 698h405zM510 747q-43 0 -43 42q0 25 20 45t45 20q43 0 43 -41q0 -26 -19.5 -46t-45.5 -20zM339 747q-43 0 -43 42q0 26 20 46t46 20q19 0 31 -13t12 -31q0 -25 -20.5 -44.5t-45.5 -19.5z
" />
    <glyph glyph-name="Egrave" unicode="&#xc8;" horiz-adv-x="501" 
d="M620 698l-44 -92h-264l-44 -207h247l-20 -91h-247l-45 -216h291l-46 -92h-381l148 698h405zM459 761l-58 -35l-134 119l75 46z" />
    <glyph glyph-name="Iacute" unicode="&#xcd;" horiz-adv-x="250" 
d="M331 698l-148 -698h-116l148 698h116zM385 850l-185 -119l-42 35l173 130z" />
    <glyph glyph-name="Icircumflex" unicode="&#xce;" horiz-adv-x="250" 
d="M461 778l-33 -49l-124 76l-157 -76l-13 49l189 115zM333 698l-148 -698h-116l148 698h116z" />
    <glyph glyph-name="Idieresis" unicode="&#xcf;" horiz-adv-x="250" 
d="M375 743q-43 0 -43 42q0 25 20.5 45t45.5 20q42 0 42 -41q0 -26 -19.5 -46t-45.5 -20zM204 743q-43 0 -43 42q0 26 20 46t46 20q19 0 31 -13t12 -31q0 -25 -20.5 -44.5t-45.5 -19.5zM337 698l-148 -698h-116l148 698h116z" />
    <glyph glyph-name="Igrave" unicode="&#xcc;" horiz-adv-x="250" 
d="M331 698l-148 -698h-116l148 698h116zM325 765l-58 -35l-134 119l75 46z" />
    <glyph glyph-name="Oacute" unicode="&#xd3;" horiz-adv-x="811" 
d="M845 350q-31 -148 -154 -253q-128 -109 -284 -109q-132 0 -217 79.5t-85 205.5q0 37 8 76q32 151 159.5 255t282.5 104q133 0 215.5 -80t82.5 -203q0 -37 -8 -75zM730 348q6 29 6 57q0 89 -58 146.5t-145 57.5q-100 0 -192 -77.5t-114 -182.5q-6 -28 -6 -56
q0 -87 56 -145t147 -58q109 0 199 80q85 76 107 178zM679 852l-185 -119l-42 35l173 130z" />
    <glyph glyph-name="Ocircumflex" unicode="&#xd4;" horiz-adv-x="811" 
d="M845 350q-31 -148 -154 -253q-128 -109 -284 -109q-132 0 -217 79.5t-85 205.5q0 37 8 76q32 151 159.5 255t282.5 104q133 0 215.5 -80t82.5 -203q0 -37 -8 -75zM730 348q6 29 6 57q0 89 -58 146.5t-145 57.5q-100 0 -192 -77.5t-114 -182.5q-6 -28 -6 -56
q0 -87 56 -145t147 -58q109 0 199 80q85 76 107 178zM705 784l-33 -49l-124 76l-157 -76l-13 49l188 115z" />
    <glyph glyph-name="Ograve" unicode="&#xd2;" horiz-adv-x="811" 
d="M845 350q-31 -148 -154 -253q-128 -109 -284 -109q-132 0 -217 79.5t-85 205.5q0 37 8 76q32 151 159.5 255t282.5 104q133 0 215.5 -80t82.5 -203q0 -37 -8 -75zM730 348q6 29 6 57q0 89 -58 146.5t-145 57.5q-100 0 -192 -77.5t-114 -182.5q-6 -28 -6 -56
q0 -87 56 -145t147 -58q109 0 199 80q85 76 107 178zM599 769l-58 -35l-134 119l75 46z" />
    <glyph glyph-name="Uacute" unicode="&#xda;" horiz-adv-x="660" 
d="M741 698l-100 -470q-24 -113 -108.5 -175.5t-203.5 -62.5q-104 0 -161 45q-60 47 -60 132q0 29 7 61l100 470h116l-98 -465q-4 -21 -4 -39q0 -105 117 -105q152 0 182 144l98 465h115zM638 841l-185 -119l-42 35l173 130z" />
    <glyph glyph-name="Ucircumflex" unicode="&#xdb;" horiz-adv-x="660" 
d="M741 698l-100 -470q-24 -113 -108.5 -175.5t-203.5 -62.5q-104 0 -161 45q-60 47 -60 132q0 29 7 61l100 470h116l-98 -465q-4 -21 -4 -39q0 -105 117 -105q152 0 182 144l98 465h115zM660 783l-33 -49l-124 76l-157 -76l-13 49l188 115z" />
    <glyph glyph-name="Ugrave" unicode="&#xd9;" horiz-adv-x="660" 
d="M568 755l-57 -35l-134 119l75 46zM735 698l-100 -470q-24 -113 -108.5 -175.5t-203.5 -62.5q-104 0 -161 45q-60 47 -60 132q0 29 7 61l100 470h116l-98 -465q-4 -21 -4 -39q0 -105 117 -105q152 0 182 144l98 465h115z" />
    <glyph glyph-name="dotlessi" unicode="&#x131;" horiz-adv-x="223" 
d="M281 505l-107 -505h-107l97 456z" />
    <glyph glyph-name="circumflex" unicode="&#x2c6;" horiz-adv-x="280" 
d="M439 640l-33 -49l-124 76l-157 -76l-13 49l188 115z" />
    <glyph glyph-name="tilde" unicode="&#x2dc;" horiz-adv-x="280" 
d="M437 750l-14 -68q-50 -13 -80 -13q-13 0 -59.5 10t-64.5 10q-34 0 -70 -17l14 67q37 11 66 11q23 0 65 -9.5t58 -9.5q55 0 85 19z" />
    <glyph glyph-name="macron" unicode="&#xaf;" horiz-adv-x="211" 
d="M346 611l-14 -67h-220l14 67h220z" />
    <glyph glyph-name="macron" unicode="&#x2c9;" horiz-adv-x="211" 
d="M346 611l-14 -67h-220l14 67h220z" />
    <glyph glyph-name="breve" unicode="&#x2d8;" horiz-adv-x="280" 
d="M458 732q-29 -51 -81 -83t-107 -32t-93 32t-46 83l58 50q0 -41 27 -67t69 -26t80.5 26t55.5 67z" />
    <glyph glyph-name="ring" unicode="&#x2da;" horiz-adv-x="280" 
d="M268 591q-32 0 -52.5 18.5t-20.5 45.5q0 38 34 66.5t73 28.5q33 0 52.5 -18.5t19.5 -45.5q0 -39 -33.5 -67t-72.5 -28zM326 669q4 18 -6 32.5t-27 14.5q-16 0 -32.5 -14.5t-19.5 -31.5t6.5 -30.5t25.5 -13.5q44 0 53 43z" />
    <glyph glyph-name="cedilla" unicode="&#xb8;" horiz-adv-x="280" 
d="M192 -41l-130 -136l-53 9l117 143z" />
    <glyph glyph-name="caron" unicode="&#x2c7;" horiz-adv-x="280" 
d="M458 731l-187 -115l-140 115l34 49l125 -76l156 76z" />
    <glyph glyph-name="Lslash" unicode="&#x141;" horiz-adv-x="464" 
d="M493 93l-46 -93h-380l61 287l-34 -17l-27 77l83 42l65 309h116l-51 -241l30 15l27 -77l-79 -40l-55 -262h290z" />
    <glyph glyph-name="lslash" unicode="&#x142;" horiz-adv-x="239" 
d="M340 399l-93 -48l-75 -351h-105l62 290l-32 -16l-27 77l80 41l59 275l115 47l-56 -261l45 23z" />
    <glyph glyph-name="Scaron" unicode="&#x160;" horiz-adv-x="517" 
d="M585 661l-50 -85q-69 44 -131 44q-53 0 -98 -37q-47 -40 -47 -92q0 -48 72 -73l133 -45q72 -36 72 -109q0 -20 -5 -43q-21 -100 -105.5 -165t-188.5 -65q-134 0 -203 85l73 87q59 -79 145 -79q60 0 109.5 41.5t49.5 100.5q0 49 -70 77l-131 48q-70 37 -70 107q0 18 4 39
q18 85 92 146q80 66 185 66q90 0 164 -48zM587 839l-187 -115l-140 115l34 49l125 -76l156 76z" />
    <glyph glyph-name="scaron" unicode="&#x161;" horiz-adv-x="429" 
d="M478 464l-44 -75q-62 40 -120 40q-35 0 -64 -19q-32 -22 -32 -55q0 -34 56 -56l105 -38q57 -29 57 -81q0 -12 -3 -26q-15 -72 -71 -117q-66 -54 -170 -54q-96 0 -167 45l47 87q46 -51 124 -51q45 0 81 21q44 25 44 67q0 37 -56 57l-103 35q-56 28 -56 84q0 15 4 32
q12 58 69 99q63 46 147 46q86 0 152 -41zM541 650l-187 -115l-140 115l34 49l125 -76l156 76z" />
    <glyph glyph-name="Zcaron" unicode="&#x17d;" horiz-adv-x="563" 
d="M707 698l-504 -603h371l-50 -95h-524l501 603h-334l48 95h492zM617 838l-187 -115l-140 115l34 49l125 -76l156 76z" />
    <glyph glyph-name="zcaron" unicode="&#x17e;" horiz-adv-x="473" 
d="M580 488l-390 -399h275l-47 -89h-433l394 399h-252l49 89h404zM569 641l-187 -115l-140 115l34 49l125 -76l156 76z" />
    <glyph glyph-name="brokenbar" unicode="&#xa6;" horiz-adv-x="165" 
d="M268 698l-65 -308h-74l65 308h74zM185 305l-65 -305h-74l65 305h74z" />
    <glyph glyph-name="Eth" unicode="&#xd0;" horiz-adv-x="629" 
d="M664 349q-31 -148 -154.5 -248.5t-267.5 -100.5h-175l67 314h-53l14 67h53l67 317h170q132 0 211 -78q76 -75 76 -194q0 -38 -8 -77zM551 406q0 86 -54.5 141.5t-145.5 55.5h-40l-47 -222h51l-14 -67h-51l-46 -215h42q121 0 213 93t92 214z" />
    <glyph glyph-name="eth" unicode="&#xf0;" horiz-adv-x="607" 
d="M618 242q-23 -111 -117 -186t-201 -75q-98 0 -158 61q-58 58 -58 146q0 26 6 53q23 105 116 183t201 78q19 0 27 -1q-22 36 -61 90l-58 -29l-36 44l59 30l-79 105h141q7 -9 19.5 -27l18.5 -27l61 31l34 -46l-62 -31q76 -104 108 -167q45 -91 45 -171q0 -31 -6 -61z
M517 247q4 18 4 36q0 56 -35.5 92.5t-93.5 36.5q-68 0 -125 -48.5t-72 -122.5q-5 -22 -5 -42q0 -58 35 -92.5t93 -34.5q68 0 125 48.5t74 126.5z" />
    <glyph glyph-name="Yacute" unicode="&#xdd;" horiz-adv-x="524" 
d="M700 698l-317 -391l-65 -307h-114l65 307l-149 391h134l94 -287l221 287h131zM532 851l-185 -119l-42 35l173 130z" />
    <glyph glyph-name="Thorn" unicode="&#xde;" horiz-adv-x="533" 
d="M604 373q-20 -95 -86.5 -152t-157.5 -57h-142l-35 -164h-116l148 698h116l-25 -120h115q90 0 139.5 -41t49.5 -114q0 -24 -6 -50zM490 367q4 19 4 34q0 85 -109 85h-99l-49 -234h102q127 0 151 115z" />
    <glyph glyph-name="thorn" unicode="&#xfe;" horiz-adv-x="587" 
d="M601 244q-25 -114 -104 -184t-180 -70q-92 0 -134 62l-42 -200l-115 -44l183 858l112 50l-61 -287q69 71 166 71q85 0 134 -48t49 -134q0 -35 -8 -74zM489 240q6 27 6 51q0 60 -34 92t-88 32t-93.5 -44t-55.5 -121q-9 -44 -9 -77q0 -103 85 -103q70 0 121 46t68 124z" />
    <glyph glyph-name="minus" unicode="&#xad;" 
d="M608 399l-19 -90h-430l19 90h430z" />
    <glyph glyph-name="minus" unicode="&#x2212;" 
d="M608 399l-19 -90h-430l19 90h430z" />
    <glyph glyph-name="onesuperior" unicode="&#xb9;" horiz-adv-x="254" 
d="M345 737l-75 -349h-56l64 300h-36l26 49h77z" />
    <glyph glyph-name="twosuperior" unicode="&#xb2;" horiz-adv-x="300" 
d="M402 632q-10 -45 -59 -97q-31 -31 -125 -110h143l-24 -49h-239q107 85 142 118q109 100 109 153q0 37 -43 37q-56 0 -69 -64h-55q10 46 48 78t85 32q90 0 90 -75q0 -11 -3 -23z" />
    <glyph glyph-name="threesuperior" unicode="&#xb3;" horiz-adv-x="300" 
d="M318 569q62 -9 62 -66q0 -12 -3 -25q-10 -48 -50.5 -78.5t-90.5 -30.5q-47 0 -75 23.5t-28 63.5q0 15 4 32h54q-3 -12 -3 -22q0 -53 55 -53q29 0 50.5 19.5t27.5 49.5q2 9 2 16q0 48 -78 48l9 40q34 0 58 15q28 18 28 51q0 39 -43 39q-45 0 -66 -52h-52q8 39 45 66.5
t85 27.5q43 0 68 -22q22 -19 22 -49q0 -33 -24 -60t-57 -33z" />
    <glyph glyph-name="onehalf" unicode="&#xbd;" horiz-adv-x="568" 
d="M275 737l-75 -349h-56l64 300h-36l26 49h77zM560 743l-505 -785h-54l506 785h53zM578 256q-10 -45 -59 -97q-31 -31 -125 -110h143l-24 -49h-239q107 85 142 118q109 100 109 153q0 37 -43 37q-56 0 -69 -64h-55q10 46 48 78t85 32q90 0 90 -75q0 -11 -3 -23z" />
    <glyph glyph-name="onequarter" unicode="&#xbc;" horiz-adv-x="568" 
d="M285 737l-75 -349h-56l64 300h-36l26 49h77zM580 743l-505 -785h-54l506 785h53zM558 348l-47 -220h33l-9 -43h-33l-18 -86h-56l18 86h-161l10 46l196 217h67zM491 297l-142 -167h107z" />
    <glyph glyph-name="threequarters" unicode="&#xbe;" horiz-adv-x="640" 
d="M318 569q62 -9 62 -66q0 -12 -3 -25q-10 -48 -50.5 -78.5t-90.5 -30.5q-47 0 -75 23.5t-28 63.5q0 15 4 32h54q-3 -12 -3 -22q0 -53 55 -53q29 0 50.5 19.5t27.5 49.5q2 9 2 16q0 48 -78 48l9 40q34 0 58 15q28 18 28 51q0 39 -43 39q-45 0 -66 -52h-52q8 39 45 66.5
t85 27.5q43 0 68 -22q22 -19 22 -49q0 -33 -24 -60t-57 -33zM690 743l-505 -785h-54l506 785h53zM663 351l-47 -220h33l-9 -43h-33l-19 -86h-56l19 86h-161l9 46l197 217h67zM596 300l-143 -167h107z" />
    </font>
</defs>
</svg>
